name rise30.9205peak61.366fall85.3838.mot
datacolumns 19
datarows 12
range 22.19327900000000 22.21158400000000
endheader
time	ground_force1_vx	ground_force1_vy	ground_force1_vz	ground_force1_px	ground_force1_py	ground_force1_pz	ground_force2_vx	ground_force2_vy	ground_force2_vz	ground_force2_px	ground_force2_py	ground_force2_pz	ground_torque1_x	ground_torque1_y	ground_torque1_z	ground_torque2_x	ground_torque2_y	ground_torque2_z	
22.19327900000000	59.92104700000000	750.94799000000000	55.43535400000000	0.35770000000000	0.00000000000000	0.07827300000000	0.21249800000000	11.03964700000000	1.43115200000000	0.00000000000000	0.00000000000000	0.00000000000000	0.00000000000000	30.62729500000000	0.00000000000000	0.00000000000000	0.13500300000000	0.00000000000000	
22.19492000000000	59.33319200000000	753.89702000000000	55.63147600000000	0.35650500000000	0.00000000000000	0.07823600000000	0.34090300000000	6.93514300000000	0.96086200000000	0.00000000000000	0.00000000000000	0.00000000000000	0.00000000000000	30.73297300000000	0.00000000000000	0.00000000000000	0.11730400000000	0.00000000000000	
22.19658500000000	58.74949300000000	756.76638700000001	55.82459700000000	0.35533800000000	0.00000000000000	0.07819800000000	0.39927900000000	3.55001800000000	0.55772300000000	0.00000000000000	0.00000000000000	0.00000000000000	0.00000000000000	30.83714100000000	0.00000000000000	0.00000000000000	0.09520900000000	0.00000000000000	
22.19824800000000	58.17045600000000	759.55372199999999	56.01405200000000	0.35419800000000	0.00000000000000	0.07816000000000	0.00000000000000	0.00000000000000	0.00000000000000	0.00000000000000	0.00000000000000	0.00000000000000	0.00000000000000	30.93935300000000	0.00000000000000	0.00000000000000	0.00000000000000	0.00000000000000	
22.19991300000000	57.59652000000000	762.25659499999995	56.19913000000000	0.35308600000000	0.00000000000000	0.07812100000000	0.00000000000000	0.00000000000000	0.00000000000000	0.00000000000000	0.00000000000000	0.00000000000000	0.00000000000000	31.03912900000000	0.00000000000000	0.00000000000000	0.00000000000000	0.00000000000000	
22.20158700000000	57.02805200000000	764.87253599999997	56.37907600000000	0.35200300000000	0.00000000000000	0.07808200000000	0.00000000000000	0.00000000000000	0.00000000000000	0.00000000000000	0.00000000000000	0.00000000000000	0.00000000000000	31.13596500000000	0.00000000000000	0.00000000000000	0.00000000000000	0.00000000000000	
22.20324600000000	56.46535600000000	767.39904799999999	56.55309500000000	0.35094800000000	0.00000000000000	0.07804300000000	0.00000000000000	0.00000000000000	0.00000000000000	0.00000000000000	0.00000000000000	0.00000000000000	0.00000000000000	31.22933100000000	0.00000000000000	0.00000000000000	0.00000000000000	0.00000000000000	
22.20491700000000	55.90867000000000	769.83362799999998	56.72036400000000	0.34992100000000	0.00000000000000	0.07800400000000	0.00000000000000	0.00000000000000	0.00000000000000	0.00000000000000	0.00000000000000	0.00000000000000	0.00000000000000	31.31868000000000	0.00000000000000	0.00000000000000	0.00000000000000	0.00000000000000	
22.20657900000000	55.35817300000000	772.17377399999998	56.88003700000000	0.34892100000000	0.00000000000000	0.07796300000000	0.00000000000000	0.00000000000000	0.00000000000000	0.00000000000000	0.00000000000000	0.00000000000000	0.00000000000000	31.40345100000000	0.00000000000000	0.00000000000000	0.00000000000000	0.00000000000000	
22.20824900000000	54.81398300000000	774.41701000000000	57.03124600000000	0.34794900000000	0.00000000000000	0.07792300000000	0.00000000000000	0.00000000000000	0.00000000000000	0.00000000000000	0.00000000000000	0.00000000000000	0.00000000000000	31.48306900000000	0.00000000000000	0.00000000000000	0.00000000000000	0.00000000000000	
22.20992100000000	54.27616300000000	776.56089799999995	57.17311700000000	0.34700400000000	0.00000000000000	0.07788100000000	0.00000000000000	0.00000000000000	0.00000000000000	0.00000000000000	0.00000000000000	0.00000000000000	0.00000000000000	31.55695600000000	0.00000000000000	0.00000000000000	0.00000000000000	0.00000000000000	
22.21158400000000	53.74472400000000	778.60305400000004	57.30477000000000	0.34608500000000	0.00000000000000	0.07783900000000	0.00000000000000	0.00000000000000	0.00000000000000	0.00000000000000	0.00000000000000	0.00000000000000	0.00000000000000	31.62452900000000	0.00000000000000	0.00000000000000	0.00000000000000	0.00000000000000	
